<svg width="143" height="30" viewBox="0 0 143 30" fill="none" xmlns="http://www.w3.org/2000/svg">
<path d="M5.54876 2.46182H5.73692L6.54035 3.22321C6.54035 4.0408 5.21854 7.92178 2.57493 14.8661C2.11374 15.9599 1.8466 17.1206 1.78466 18.2996V18.5063C1.78466 18.8761 2.04526 19.2233 2.84023 19.2233L2.97664 19.255C8.16604 17.7322 11.2026 16.9708 12.0863 16.9708C12.4186 16.9605 12.7466 17.0459 13.0283 17.216C13.31 17.3862 13.5327 17.6335 13.6678 17.9262V18.1202C13.6678 18.4984 12.4798 18.748 10.1041 18.8689C8.84466 19.6085 6.27317 20.3742 2.38959 21.1657H1.98129C1.55094 21.1592 1.13239 21.0292 0.779123 20.7924C0.425855 20.5555 0.153933 20.2225 -0.00189209 19.836V18.1193C-0.00189209 17.121 1.51654 12.7279 4.55341 4.93997C4.85947 3.28787 5.19126 2.46182 5.54876 2.46182Z" fill="white"/>
<path d="M21.5235 11.0695L22.0626 16.4011C22.5814 17.6691 22.9019 19.0043 23.0137 20.363C22.9241 20.9135 22.6515 21.1887 22.1962 21.1887C21.9554 21.1887 21.977 20.0231 21.3796 17.8586C21.1515 17.4004 21.011 16.9064 20.9647 16.4001L17.8027 19.3007C17.6033 19.5935 17.1997 19.8083 16.2786 19.7321C14.4686 19.5817 13.8326 18.0879 13.8326 15.9705V14.5121C13.8326 13.1264 14.1496 12.2227 14.7837 11.801C15.0603 11.8959 15.2485 12.1756 15.3482 12.6403C15.1333 13.3836 15.0382 14.1543 15.066 14.9254C14.9866 16.0944 15.3205 17.2548 16.0133 18.2175L16.6559 18.2864C19.181 17.4371 20.5856 15.5128 20.5856 11.4937C20.5893 11.016 21.2102 11.0695 21.5235 11.0695Z" fill="white"/>
<path d="M29.1191 11.3293C29.9291 11.7826 30.5171 11.555 30.6864 12.8286L30.4682 13.0733H29.9921L28.8171 12.553C26.07 12.8585 24.6729 14.7103 24.6729 17.3262V17.7395C24.615 18.2276 24.7567 18.7183 25.0679 19.1074C25.3791 19.4966 25.8353 19.7537 26.34 19.8243L27.197 19.8469C29.5547 19.8469 30.916 19.3892 32.8691 17.2655L33.5558 17.667L33.6321 18.1483C30.8614 20.6573 29.6572 21.086 26.021 21.1848C24.3154 21.2319 23.3238 19.8469 23.0463 17.1703C23.0463 14.4764 24.6691 12.6491 27.9732 11.401L29.1191 11.3293Z" fill="white"/>
<path d="M33.9061 11.8577L34.8356 11.72L34.3596 14.6577L34.32 15.2505L34.1319 17.6516C34.3734 18.3398 34.6145 18.684 34.8554 18.684H35.0294C36.2618 18.684 37.8593 17.1557 39.9958 15.7662C41.1126 15.0411 42.0355 13.3189 42.536 13.3189C43.1259 13.5165 43.235 14.3595 43.0544 16.7995C42.8384 20.8392 42.1188 24.8393 40.9112 28.7135L40.375 28.8947L40.2009 28.03V27.8623L41.2725 21.4349L42.1192 15.8596C41.5651 15.8596 39.8557 17.4141 37.435 19.2559L34.6719 20.1125C33.4837 19.613 32.8844 18.9903 32.8844 18.0005V16.7995C32.9757 15.3103 33.5223 11.8577 33.9061 11.8577Z" fill="white"/>
<path d="M53.1734 14.1403H53.5356C54.1245 14.1403 54.5397 16.0292 54.7812 19.8072L55.5047 19.9885C56.0229 19.8682 56.508 19.6417 56.9272 19.3244C57.3463 19.0073 57.6896 18.6068 57.9338 18.1502L58.1709 18.7847V18.9524C58.1709 20.1749 57.3401 20.9193 55.6787 21.1858C54.196 21.1858 53.3609 20.2694 53.1734 18.4367V17.2348L53.2139 16.9701C53.053 16.1697 53.0257 15.8534 52.8253 15.8534C51.7622 18.0481 50.9896 19.2527 50.5072 19.4673H49.9719L49.6107 19.1183C50.9585 16.3845 52.1461 14.7252 53.1734 14.1403ZM54.0709 9.84204H54.4322L55.1425 10.5264V10.6941C55.1677 10.8579 55.153 11.0251 55.0996 11.1825C55.0461 11.3399 54.9554 11.4831 54.8345 11.6009C54.7137 11.7187 54.566 11.8077 54.4033 11.861C54.2405 11.9142 54.0672 11.9302 53.8969 11.9078C53.5575 11.9078 53.3164 11.4473 53.1734 10.5264L54.0709 9.84204Z" fill="white"/>
<path d="M64.8621 12.7617C65.7401 12.7617 66.2181 14.655 66.2959 18.4413C66.6365 18.7472 67.0767 18.9298 67.5415 18.958L70.9283 17.4089H71.2896V17.5757C70.7446 18.6344 69.1994 19.7221 66.6543 20.8388C66.1005 20.8388 65.4442 20.2107 64.6852 18.9544L64.5112 14.8238L64.3371 14.6561C64.0066 14.6561 63.2295 15.7438 62.0059 17.9192C60.9879 20.0946 60.0365 21.1823 59.1515 21.1823H58.8034C58.2051 20.8639 57.9059 20.0635 57.9059 18.7812C58.0044 17.3538 58.3673 15.9549 58.9774 14.6507C59.2544 14.709 59.4993 14.8639 59.665 15.0856C59.8306 15.3073 59.9054 15.5801 59.875 15.8517L59.6868 18.7812C60.4011 18.2476 61.5301 16.5825 63.0737 13.786C63.5223 13.2482 64.1574 12.8844 64.8621 12.7617Z" fill="white"/>
<path d="M83.6981 2.35214L84.1939 2.82983V3.06188L82.7338 6.09565L82.2512 7.72176V8.17497L84.9174 7.72176H86.6052V8.17497C86.5424 8.53754 84.849 9.16142 81.5249 10.0467C81.06 11.881 80.8128 13.7603 80.7883 15.6484V17.2745C80.9846 18.4274 81.306 19.0426 81.7526 19.1199C82.4224 19.1199 83.367 18.626 84.4743 17.5419L84.6624 17.4938L85.1451 17.9715L85.2787 18.2126C83.7423 20.0798 82.4027 20.9917 81.5277 20.9917C80.5869 20.554 79.8057 19.8522 79.2868 18.9785C78.7679 18.1049 78.5357 17.1003 78.6207 16.0971L79.5982 10.5208H79.3432L77.4277 10.974H76.9319V10.0449C76.9319 9.77842 77.9769 9.39111 80.0667 8.88288C81.4691 4.52906 82.6795 2.35214 83.6981 2.35214Z" fill="white"/>
<path d="M91.4429 0.897339C92.2739 0.897339 92.6892 2.33007 92.6886 5.19556C92.6886 9.35238 91.6167 12.6182 89.4729 14.993L89.1248 16.0254V16.3744L89.8351 19.6375C90.0402 19.5516 90.6342 18.347 91.617 16.0236L92.5126 14.9966H93.2229L94.4685 17.0614C94.9154 17.45 95.478 17.6938 96.0763 17.7585C96.9381 17.7204 97.7839 17.5196 98.5647 17.1675L98.9297 17.5772L99.3061 17.9815C98.9401 18.5924 97.6728 18.8244 96.2532 19.1263H95.5429C94.6256 18.9505 93.8037 18.4652 93.2248 17.7576L92.6886 17.5763C91.7779 19.9862 90.9472 21.1908 90.1964 21.1902C89.3478 21.1902 88.5127 19.7016 87.6911 16.7243H87.3298L85.1999 18.2733L84.3024 18.092V17.695C86.5603 15.9919 87.6892 14.6712 87.6892 13.9787V12.4297C87.7867 9.24588 88.4527 6.10204 89.6583 3.13617C89.9317 2.38072 90.3551 1.68373 90.9048 1.08405L91.4429 0.897339ZM89.2998 11.3918V12.4242L89.6611 12.7596C90.8923 10.974 91.5707 8.88781 91.617 6.74462L91.2557 3.99547C89.9518 5.51825 89.2998 7.98369 89.2998 11.3918Z" fill="white"/>
<path d="M104.837 11.8178H105.427L106.03 12.3862C106.03 13.5391 104.052 15.445 100.095 18.1038V18.4909C100.42 18.8877 100.843 19.2004 101.324 19.4008C101.806 19.6013 102.332 19.6833 102.855 19.6393C105.034 19.4851 107.142 18.8299 109.004 17.7286H109.594L109.782 18.3096C107.959 19.9604 105.568 20.9067 103.067 20.9681H102.454C99.8201 20.9681 98.503 20.013 98.503 18.1029V17.7286C98.5011 15.0268 100.612 13.0566 104.837 11.8178ZM100.282 16.3871C101.626 15.9827 102.803 15.1787 103.644 14.0902V13.9089L103.256 13.5346C101.497 14.5673 100.505 15.5181 100.282 16.3871Z" fill="white"/>
<path d="M123.887 0L124.457 0.538406L124.302 1.03966C121.211 4.24112 119.987 5.46297 118.159 5.94699C116.885 6.28418 116.606 7.7707 116.606 8.26923C116.606 9.60348 117.915 10.887 120.651 11.962C122.794 13.3823 123.924 14.7918 123.924 16.3499C123.594 17.9504 122.633 19.3658 121.245 20.3001L119.101 21.1648C118.387 21.0186 118.029 20.8464 118.029 20.6482V20.485C118.029 20.0982 118.865 19.7542 120.535 19.4526C121.118 18.9504 121.592 18.3408 121.927 17.6595C122.263 16.9783 122.453 16.2393 122.488 15.4861C122.488 14.4963 120.809 13.3343 117.361 12.1469C115.574 10.8045 114.804 9.62523 114.804 8.56744C115.651 5.70226 117.686 3.17246 121.241 0.874688C122.033 0.375663 122.943 0.0750258 123.887 0Z" fill="white"/>
<path d="M128.053 3.89215L128.28 4.04262C128.798 4.04262 127.629 5.19012 127.486 8.8466L127.422 9.47385C127.004 11.2677 126.77 13.097 126.724 14.935C126.714 15.3293 125.909 18.0168 125.909 18.6839V19.0193L126.406 21.8682L126.2 22.5371L125.909 22.6332C125.281 22.6332 124.746 21.3168 124.301 18.6839L124.335 18.412C124.361 18.0942 124.434 17.7814 124.549 17.4829C125.389 15.1879 125.073 16.4388 125.185 15.4154C126.037 7.71812 127.134 3.89215 128.053 3.89215ZM130.884 14.3984C131.731 14.0658 131.978 14.3767 131.978 14.7202C131.978 15.322 131.054 15.9266 129.155 16.4687L127.65 17.5872L127.675 18.2761C131.849 18.858 132.096 19.1081 132.096 19.5387L131.454 19.7907C129.551 19.7907 126.178 19.3891 126.178 18.3567L126.309 17.657C126.3 17.0279 128.51 15.3347 130.885 14.4002L130.884 14.3984Z" fill="white"/>
<path d="M133.463 13.8319H133.824L134.185 14.1682V14.5163L133.997 16.9173C134.238 17.6053 134.326 17.9624 134.719 18.0767L135.111 17.9498C136.699 17.2999 138.195 16.4601 139.565 15.4499C140.27 14.9027 141.132 14.5771 142.035 14.5172C142.625 14.7148 142.92 15.2311 142.92 16.0662C142.61 20.0954 141.892 24.0857 140.776 27.9802L140.239 28.1614L140.065 27.2967V27.129L141.137 20.7016L141.847 15.8868C141.293 15.8868 138.171 17.5745 135.766 19.2496L134.533 19.5006C134.029 19.3559 133.587 19.0623 133.267 18.6614C132.947 18.2605 132.767 17.7726 132.751 17.2672V16.0662C132.841 14.5767 133.078 13.8319 133.463 13.8319Z" fill="white"/>
<path d="M51.184 25.2525V28.5156H53.201V28.9271H50.6779V25.257L51.184 25.2525Z" fill="white"/>
<path d="M55.6711 26.3658C55.7435 26.1414 55.8604 25.9326 56.0155 25.7512C56.1713 25.5706 56.3662 25.4249 56.5865 25.3243C56.8373 25.2193 57.108 25.165 57.3814 25.165C57.655 25.165 57.9256 25.2193 58.1764 25.3243C58.3966 25.4251 58.5915 25.5708 58.7474 25.7512C58.9022 25.9328 59.0191 26.1416 59.0918 26.3658C59.2448 26.8361 59.2448 27.3403 59.0918 27.8106C59.0192 28.035 58.9023 28.2436 58.7474 28.4252C58.5918 28.6054 58.3968 28.7502 58.1764 28.8494C57.9251 28.9528 57.6547 29.0061 57.3814 29.0061C57.1082 29.0061 56.8378 28.9528 56.5865 28.8494C56.366 28.7504 56.171 28.6056 56.0155 28.4252C55.8604 28.2438 55.7435 28.0351 55.6711 27.8106C55.5181 27.3403 55.5181 26.8361 55.6711 26.3658ZM56.1415 27.6348C56.1886 27.8092 56.2683 27.9738 56.3767 28.1206C56.4841 28.2653 56.6249 28.3841 56.7878 28.4678C56.9743 28.5541 57.1784 28.5989 57.3852 28.5989C57.592 28.5989 57.7961 28.5541 57.9826 28.4678C58.1454 28.384 58.2862 28.2652 58.3937 28.1206C58.502 27.9737 58.5817 27.8091 58.6289 27.6348C58.7285 27.2761 58.7285 26.8985 58.6289 26.5398C58.5817 26.3655 58.502 26.2009 58.3937 26.054C58.2862 25.9094 58.1454 25.7906 57.9826 25.7068C57.7961 25.6206 57.592 25.5759 57.3852 25.5759C57.1784 25.5759 56.9743 25.6206 56.7878 25.7068C56.6249 25.7905 56.4841 25.9093 56.3767 26.054C56.2683 26.2008 56.1886 26.3654 56.1415 26.5398C56.0419 26.8985 56.0419 27.2761 56.1415 27.6348Z" fill="white"/>
<path d="M63.8702 25.7542C63.6798 25.6284 63.4526 25.5648 63.2219 25.5729C63.1161 25.5728 63.0104 25.5831 62.9068 25.6037C62.8096 25.6218 62.7165 25.6566 62.632 25.7061C62.5538 25.7545 62.4891 25.8209 62.4439 25.8992C62.3927 25.9917 62.3678 26.0954 62.3714 26.2001C62.368 26.3005 62.4054 26.3981 62.4759 26.4721C62.5545 26.5479 62.6492 26.6067 62.7534 26.6443C62.8805 26.6923 63.0117 26.7293 63.1457 26.7549C63.2913 26.7839 63.4399 26.814 63.5917 26.8455C63.7434 26.877 63.8921 26.9171 64.0376 26.9661C64.1774 27.0093 64.3097 27.0726 64.4299 27.1537C64.5446 27.2316 64.6395 27.3336 64.7075 27.4519C64.781 27.6019 64.8166 27.7666 64.811 27.9324C64.8054 28.0982 64.7589 28.2603 64.6755 28.4054C64.5869 28.5421 64.4676 28.658 64.3264 28.7444C64.1796 28.8338 64.018 28.8982 63.8485 28.9348C63.6761 28.9737 63.4997 28.9934 63.3226 28.9937C63.1179 28.9949 62.914 28.969 62.7167 28.9167C62.5358 28.8697 62.3657 28.7904 62.2153 28.6828C62.07 28.5773 61.953 28.44 61.8737 28.2822C61.7861 28.1013 61.7433 27.9034 61.7486 27.7039H62.2284C62.2248 27.842 62.2571 27.9788 62.3225 28.1018C62.3822 28.2089 62.4662 28.3018 62.5681 28.3737C62.6747 28.4481 62.7951 28.5023 62.9227 28.5333C63.0585 28.5676 63.1982 28.585 63.3386 28.5849C63.4541 28.5848 63.5694 28.5745 63.6829 28.5541C63.7923 28.5359 63.8979 28.5003 63.9953 28.449C64.0943 28.3982 64.1763 28.3211 64.2311 28.2267C64.286 28.1324 64.3116 28.0248 64.3048 27.9169C64.3098 27.8054 64.2727 27.6959 64.2004 27.6087C64.1243 27.525 64.0293 27.4589 63.9228 27.4156C63.7966 27.3628 63.6651 27.3225 63.5305 27.2951L63.0846 27.2044C62.9334 27.1724 62.7847 27.1346 62.6386 27.0911C62.5005 27.0519 62.3685 26.9949 62.2463 26.9216C62.1236 26.8505 62.0234 26.7485 61.9563 26.6267C61.8892 26.5049 61.8577 26.3678 61.8653 26.23C61.861 26.0628 61.9015 25.8974 61.9829 25.7496C62.0589 25.6165 62.1658 25.502 62.2952 25.4152C62.4299 25.3258 62.5799 25.2598 62.7383 25.2203C62.9046 25.1772 63.0761 25.1556 63.2483 25.1559C63.4318 25.1547 63.6147 25.1772 63.7921 25.223C63.952 25.2642 64.1018 25.336 64.2324 25.4342C64.3597 25.5314 64.462 25.6554 64.5315 25.7968C64.6088 25.9609 64.6498 26.1387 64.652 26.3189H64.1722C64.1667 26.2094 64.1369 26.1023 64.0847 26.005C64.0326 25.9075 63.9594 25.822 63.8702 25.7542Z" fill="white"/>
<path d="M72.7662 25.2527L74.2554 28.9228H73.691L73.2751 27.8179H71.6636L71.2365 28.9228H70.7191L72.2027 25.2527H72.7662ZM73.119 27.4064L72.4839 25.695H72.4727L71.8273 27.4064H73.119Z" fill="white"/>
<path d="M77.2942 25.2526L79.3 28.2284H79.3103V25.2526H79.7901V28.9227H79.235L77.2453 25.9778H77.2349V28.9227H76.7551V25.2526H77.2942Z" fill="white"/>
<path d="M85.0416 28.8793C84.8296 28.9616 84.6032 29.0043 84.3746 29.0053C84.1118 29.0097 83.8513 28.9581 83.6117 28.8539C83.3938 28.7575 83.1993 28.6183 83.0406 28.4451C82.8831 28.2721 82.7618 28.0714 82.6831 27.8542C82.6013 27.6312 82.56 27.3963 82.5608 27.1598C82.5595 26.9013 82.5982 26.6441 82.6756 26.3966C82.7462 26.166 82.8621 25.9506 83.0171 25.7622C83.1699 25.5792 83.3625 25.431 83.5816 25.328C83.829 25.2154 84.1002 25.1598 84.3737 25.1657C84.5708 25.1647 84.7671 25.1882 84.9579 25.2355C85.1342 25.2786 85.3006 25.3526 85.449 25.454C85.5949 25.5554 85.7184 25.6839 85.8121 25.832C85.9164 26.0016 85.9845 26.1895 86.0125 26.3849H85.5054C85.4855 26.2562 85.4385 26.1328 85.3672 26.0223C85.3018 25.9237 85.2163 25.8389 85.116 25.773C85.0125 25.7061 84.898 25.6564 84.7773 25.6262C84.6459 25.5931 84.5105 25.5766 84.3746 25.5772C84.179 25.5703 83.9846 25.6111 83.8097 25.6961C83.6348 25.781 83.4851 25.9073 83.3746 26.0631C83.267 26.2146 83.1882 26.3834 83.1422 26.5616C83.0925 26.7488 83.0675 26.9412 83.0679 27.1345C83.0673 27.3219 83.0962 27.5083 83.1535 27.6874C83.2068 27.8568 83.2919 28.0153 83.4047 28.1551C83.515 28.2901 83.6542 28.4005 83.813 28.4787C83.9883 28.5623 84.182 28.6037 84.3775 28.5992C84.5579 28.6031 84.7373 28.5723 84.9052 28.5086C85.0507 28.4524 85.1817 28.3666 85.2895 28.2572C85.3974 28.1477 85.4794 28.017 85.5299 27.8741C85.5842 27.723 85.6078 27.5633 85.5995 27.4037H84.3831V26.9922H86.053V28.9246H85.7331L85.5995 28.4714C85.4569 28.6551 85.2636 28.7964 85.0416 28.8793Z" fill="white"/>
<path d="M91.5595 25.2526V25.6641H89.4361V26.8307H91.4118V27.2422H89.4361V28.5112H91.5755V28.9227H88.929V25.2526H91.5595Z" fill="white"/>
<path d="M94.8326 25.2527V28.5158H96.8497V28.9274H94.3264V25.2572L94.8326 25.2527Z" fill="white"/>
<path d="M102.056 25.2527V25.6642H99.933V26.8308H101.909V27.2423H99.933V28.5113H102.07V28.9228H99.4259V25.2527H102.056Z" fill="white"/>
<path d="M106.727 25.754C106.537 25.6281 106.309 25.5646 106.079 25.5727C105.973 25.5726 105.867 25.5829 105.764 25.6035C105.667 25.6216 105.574 25.6563 105.489 25.7059C105.411 25.7543 105.346 25.8207 105.301 25.899C105.25 25.9914 105.225 26.0952 105.228 26.1999C105.225 26.3003 105.262 26.3979 105.333 26.4718C105.412 26.5478 105.506 26.6065 105.61 26.6441C105.737 26.692 105.868 26.729 106.002 26.7546C106.148 26.7836 106.296 26.8138 106.448 26.8453C106.599 26.8767 106.748 26.9169 106.894 26.9658C107.034 27.0092 107.166 27.0723 107.286 27.1535C107.401 27.2314 107.496 27.3334 107.563 27.4517C107.637 27.6017 107.673 27.7664 107.667 27.9322C107.661 28.0979 107.615 28.2601 107.531 28.4052C107.443 28.5419 107.324 28.6578 107.182 28.7442C107.036 28.8335 106.874 28.8979 106.705 28.9346C106.532 28.9735 106.355 28.9932 106.179 28.9935C105.974 28.9947 105.77 28.9687 105.573 28.9164C105.392 28.8695 105.222 28.7901 105.071 28.6826C104.926 28.5771 104.809 28.4398 104.73 28.282C104.642 28.1011 104.599 27.9032 104.605 27.7037H105.084C105.081 27.8418 105.113 27.9786 105.179 28.1016C105.239 28.2087 105.322 28.3016 105.424 28.3735C105.53 28.4479 105.651 28.502 105.779 28.533C105.914 28.5674 106.054 28.5848 106.195 28.5847C106.31 28.5846 106.425 28.5743 106.539 28.5539C106.648 28.5357 106.753 28.5001 106.851 28.4487C106.95 28.398 107.032 28.3208 107.087 28.2265C107.142 28.1322 107.167 28.0246 107.161 27.9167C107.166 27.8052 107.129 27.6957 107.056 27.6085C106.98 27.5247 106.885 27.4587 106.779 27.4154C106.653 27.3626 106.521 27.3222 106.387 27.2949L105.942 27.2042C105.79 27.1722 105.641 27.1344 105.496 27.0909C105.357 27.0516 105.226 26.9946 105.103 26.9214C104.981 26.8503 104.88 26.7483 104.813 26.6265C104.746 26.5047 104.715 26.3676 104.722 26.2298C104.718 26.0626 104.758 25.8972 104.84 25.7494C104.916 25.6163 105.022 25.5018 105.152 25.415C105.287 25.3256 105.437 25.2597 105.595 25.2201C105.762 25.177 105.933 25.1554 106.105 25.1557C106.289 25.1545 106.472 25.177 106.649 25.2228C106.809 25.2641 106.959 25.3359 107.089 25.434C107.216 25.531 107.319 25.6551 107.388 25.7966C107.466 25.9606 107.507 26.1385 107.509 26.3187H107.029C107.023 26.2092 106.994 26.1021 106.942 26.0047C106.89 25.9072 106.816 25.8218 106.727 25.754Z" fill="white"/>
</svg>
